Coordinates
version=1
nRows=35
nColumns=18
inDegrees=yes

Units are S.I. units (second, meters, Newtons, ...)
If the header above contains a line with 'inDegrees', this indicates whether rotational values are in degrees (yes) or radians (no).

endheader
time	ground_thorax_rot_x	ground_thorax_rot_y	ground_thorax_rot_z	ground_thorax_tx	ground_thorax_ty	ground_thorax_tz	clav_prot	clav_elev	scapula_abduction	scapula_elevation	scapula_upward_rot	scapula_winging	plane_elv	shoulder_elv	axial_rot	elbow_flexion	pro_sup
      3.00000000	      0.51728761	     -3.40602148	     -4.56736614	     -0.05054658	      0.02290114	      0.02859156	    -22.66638120	     -7.42515439	    -20.15296405	     -8.22582909	     20.94813014	     14.97314669	    -26.00000000	     16.47681996	     37.03226351	     25.67554432	   -167.22681740
      3.02000000	      0.51728761	     -3.11182432	     -4.69733267	     -0.05040499	      0.02258481	      0.02845618	    -22.47890040	     -7.60261830	    -20.32476982	     -8.16313440	     20.19511103	     15.21145122	    -26.00000000	     16.45371215	     38.44568180	     25.59758346	   -167.85953807
      3.04000000	      0.51728761	     -3.05211716	     -4.98376111	     -0.05005474	      0.02191078	      0.02877345	    -22.30706007	     -7.63670662	    -20.32563940	     -8.07460033	     19.76445725	     15.31742454	    -26.00000000	     16.05252829	     38.48430082	     25.59042703	   -167.88871962
      3.06000000	      0.51728761	     -2.75270058	     -5.20319554	     -0.04985852	      0.02152465	      0.02868866	    -22.29258991	     -7.81154641	    -20.57025568	     -8.09240157	     19.32431822	     15.49124913	    -26.00000000	     15.89352436	     40.15720760	     25.51958723	   -170.14758551
      3.08000000	      0.51728761	     -2.60767399	     -5.41746478	     -0.04966056	      0.02105195	      0.02876583	    -22.11708646	     -7.94352760	    -20.59428142	     -8.05083852	     18.80410016	     15.65379542	    -26.00000000	     15.80021606	     40.68484004	     25.55326704	   -170.20912221
      3.10000000	      0.51728761	     -2.55981169	     -5.64766763	     -0.04944084	      0.02044463	      0.02905748	    -21.98425164	     -7.96789181	    -20.59140535	     -7.97911320	     18.47048570	     15.73444183	    -26.00000000	     15.50251224	     40.71744473	     25.55142953	   -170.22600135
      3.12000000	      0.51728761	     -2.29833658	     -5.85858944	     -0.04935875	      0.02011209	      0.02894136	    -21.95906228	     -8.17459252	    -20.78580012	     -8.02272776	     18.05005142	     15.91342014	    -26.00000000	     15.48300695	     42.10611629	     25.55000867	   -170.62591430
      3.14000000	      0.51728761	     -2.26477252	     -6.05228344	     -0.04927946	      0.01956228	      0.02915831	    -21.85170472	     -8.19268288	    -20.78401893	     -7.96218974	     17.77755509	     15.97843599	    -26.00000000	     15.24904555	     42.13151437	     25.54773695	   -170.64059282
      3.16000000	      0.51728761	     -2.09164610	     -6.24208419	     -0.04933309	      0.01930318	      0.02900628	    -21.79030856	     -8.41053971	    -20.87250684	     -8.02315627	     17.40369555	     16.14508794	    -26.00000000	     15.30774968	     43.16787302	     25.53338945	   -171.00730417
      3.18000000	      0.51728761	     -2.07665417	     -6.40389890	     -0.04943335	      0.01883847	      0.02911506	    -21.70793197	     -8.42008706	    -20.87637255	     -7.97131302	     17.18742495	     16.19496071	    -26.00000000	     15.12959758	     43.18741171	     25.52889844	   -171.01987999
      3.20000000	      0.51728761	     -2.06438651	     -6.56290670	     -0.04960019	      0.01839388	      0.02914680	    -21.63522552	     -8.42524167	    -20.88247900	     -7.92228842	     16.99367984	     16.23851091	    -26.00000000	     14.98814168	     43.21163814	     25.51577820	   -171.03195403
      3.22000000	      0.51728761	     -2.00122120	     -6.70345826	     -0.04987495	      0.01832042	      0.02893372	    -21.61133736	     -8.62826906	    -20.95868132	     -8.00302291	     16.73476938	     16.37446363	    -26.00000000	     15.04516968	     44.18658806	     25.37582997	   -171.47210264
      3.24000000	      0.51728761	     -2.02393053	     -6.83821414	     -0.05023705	      0.01795279	      0.02887230	    -21.56240715	     -8.61853043	    -20.98093337	     -7.95508992	     16.58420270	     16.40424150	    -26.00000000	     14.94567898	     44.19435828	     25.35428016	   -171.48473557
      3.26000000	      0.51728761	     -2.05489691	     -6.88671713	     -0.05082662	      0.01786136	      0.02879487	    -21.54387843	     -8.64927294	    -21.04100051	     -7.93945645	     16.43898262	     16.45068315	    -26.00000000	     14.81152217	     44.15200405	     24.96168014	   -171.73609287
      3.28000000	      0.51728761	     -2.11010129	     -7.02225650	     -0.05127508	      0.01756724	      0.02863292	    -21.51283448	     -8.62040267	    -21.07967915	     -7.88609554	     16.31892096	     16.46805257	    -26.00000000	     14.75916765	     44.15303284	     24.92851037	   -171.75038338
      3.30000000	      0.51728761	     -2.26768271	     -6.97795336	     -0.05203026	      0.01758241	      0.02869869	    -21.51026611	     -8.57551450	    -21.16315763	     -7.82669439	     16.21556485	     16.47919904	    -26.00000000	     14.56404246	     43.85342484	     24.40490021	   -172.08353864
      3.32000000	      0.51728761	     -2.45176205	     -7.00479696	     -0.05283989	      0.01737123	      0.02848014	    -21.39132837	     -8.39706956	    -20.97370108	     -7.70222383	     16.26085812	     16.39039296	    -26.00000000	     14.40345969	     43.19495908	     23.97144896	   -174.78381326
      3.34000000	      0.51728761	     -2.65754518	     -6.99906825	     -0.05354655	      0.01736045	      0.02851685	    -21.39829671	     -8.35118909	    -21.08373772	     -7.63923746	     16.14489212	     16.40622132	    -26.00000000	     14.31284479	     42.96533847	     23.63461863	   -174.88338353
      3.36000000	      0.51728761	     -2.89007127	     -6.96904340	     -0.05453779	      0.01717447	      0.02832480	    -21.20689435	     -8.10450116	    -20.81194586	     -7.45182807	     16.15277512	     16.29578795	    -26.00000000	     14.15210634	     41.41352116	     22.97038439	   -176.15466477
      3.38000000	      0.51728761	     -3.11847254	     -6.92890415	     -0.05547909	      0.01712976	      0.02819118	    -21.10832208	     -7.94259233	    -20.70427054	     -7.32237957	     16.12757099	     16.23571090	    -26.00000000	     14.04178813	     40.33905786	     22.34964091	   -177.27147007
      3.40000000	      0.51728761	     -3.33426975	     -6.86232923	     -0.05646350	      0.01706822	      0.02812353	    -21.06515908	     -7.75381008	    -20.67591688	     -7.18716469	     16.14500439	     16.16374530	    -26.00000000	     13.86560298	     39.30331893	     21.65100134	   -178.08897866
      3.42000000	      0.51728761	     -3.62419163	     -6.79093497	     -0.05743532	      0.01708380	      0.02801158	    -20.88398219	     -7.62478807	    -20.44162489	     -7.06518338	     16.07161672	     16.11695909	    -26.00000000	     13.90231597	     37.91643269	     21.04426743	   -179.69960603
      3.44000000	      0.51728761	     -3.87289397	     -6.72914233	     -0.05839131	      0.01707073	      0.02791325	    -20.78072100	     -7.49066092	    -20.29856259	     -6.96238294	     16.07150062	     16.05993102	    -26.00000000	     13.85764983	     36.58538417	     20.35875730	   -180.98339565
      3.46000000	      0.51728761	     -4.10977307	     -6.62054599	     -0.05938676	      0.01711730	      0.02777891	    -20.68747973	     -7.38036798	    -20.16437487	     -6.87800518	     16.07340008	     16.01152123	    -26.00000000	     13.85804607	     35.49936086	     19.62556369	   -182.97804355
      3.48000000	      0.51728761	     -4.35771456	     -6.51706720	     -0.06035069	      0.01713326	      0.02763614	    -20.54364644	     -7.29298104	    -19.95572531	     -6.79865447	     16.03982506	     15.97242372	    -26.00000000	     13.93455614	     34.07150307	     18.97229805	   -184.37769904
      3.50000000	      0.51728761	     -4.48614601	     -6.41025171	     -0.06133062	      0.01728258	      0.02755530	    -20.57809258	     -7.29225789	    -19.99590036	     -6.80814448	     16.07182996	     15.96864874	    -26.00000000	     13.87386715	     33.31328408	     18.14386785	   -184.79876338
      3.52000000	      0.51728761	     -4.76083298	     -6.35490718	     -0.06218383	      0.01721756	      0.02727901	    -20.35053293	     -7.24649299	    -19.59440242	     -6.76499448	     16.07581350	     15.91904031	    -26.00000000	     14.09789199	     31.56756296	     17.69984586	   -187.48649455
      3.54000000	      0.51728761	     -4.81984989	     -6.22141411	     -0.06315899	      0.01743239	      0.02707574	    -20.38693395	     -7.34050617	    -19.62111763	     -6.83826415	     16.08751526	     15.95034353	    -26.00000000	     14.13595956	     30.97181305	     16.92223394	   -187.83319866
      3.56000000	      0.51728761	     -5.05171630	     -6.15280336	     -0.06398224	      0.01740690	      0.02671452	    -20.15239703	     -7.37351940	    -19.19993971	     -6.84527762	     16.06475055	     15.92990071	    -26.00000000	     14.46876855	     29.10832312	     16.63610760	   -190.26771441
      3.58000000	      0.51728761	     -5.14078742	     -6.03181939	     -0.06488334	      0.01757512	      0.02633446	    -20.12511932	     -7.49596303	    -19.04971151	     -6.95537591	     16.14981517	     15.94044961	    -26.00000000	     14.61631404	     28.58143099	     16.03545369	   -192.80639699
      3.60000000	      0.51728761	     -5.17361549	     -5.86122868	     -0.06579719	      0.01776660	      0.02597058	    -20.11584728	     -7.62384530	    -18.99511575	     -7.04654407	     16.14393270	     15.98071236	    -26.00000000	     14.77447352	     28.15646679	     15.60814702	   -192.88483659
      3.62000000	      0.51728761	     -5.27834630	     -5.78109196	     -0.06671806	      0.01790523	      0.02539669	    -19.98513833	     -7.78873362	    -18.60965000	     -7.19499555	     16.27675327	     15.97607354	    -26.00000000	     15.04577800	     26.77419924	     15.16424484	   -196.17931976
      3.64000000	      0.51728761	     -5.25096166	     -5.64743529	     -0.06764861	      0.01815539	      0.02485684	    -19.99958613	     -7.99740607	    -18.50111300	     -7.37201811	     16.37111247	     16.02086102	    -26.00000000	     15.24324228	     26.04839871	     14.74098212	   -197.75116313
      3.66000000	      0.51728761	     -5.21104805	     -5.53070837	     -0.06855882	      0.01841370	      0.02429576	    -20.03319506	     -8.22943537	    -18.41717986	     -7.56787871	     16.46951765	     16.07709698	    -26.00000000	     15.45102109	     25.03330802	     14.46803346	   -198.56733044
      3.68000000	      0.51728761	     -5.15954245	     -5.31683397	     -0.06962387	      0.01871231	      0.02353275	    -19.98466252	     -8.41020832	    -18.18266020	     -7.72910130	     16.59375238	     16.09734570	    -26.00000000	     15.68747366	     24.62953025	     13.99581824	   -200.80741738
